<svg class="" height="512"
     version="1.1" viewBox="0 0 512 512" width="512" x="0"
     xmlns="http://www.w3.org/2000/svg" y="0">
  <g>
    <path
      class=""
      d="M271 75V0h-30v75c0 165.313-57.313 317.236-153.142 437H186c0-38.66 31.34-70 70-70s70 31.34 70 70h98.142C328.313 392.236 271 240.313 271 75zm0 277h-30v-60h30v60z"
      fill="#3b82f6" opacity="1" style=""/>
    <path
      class=""
      d="M271 75V0h-15v292h15v60h-15v90c38.66 0 70 31.34 70 70h98.142C328.313 392.236 271 240.313 271 75z"
      fill="#2563eb" opacity="1" style=""/>
    <path d="M341.754 382a696.104 696.104 0 0 1-13.8-30H184.046a697.316 697.316 0 0 1-13.8 30h171.508z"
          fill="#2563eb" opacity="1" style=""/>
    <path class="" d="M256 382h85.754a696.104 696.104 0 0 1-13.8-30H256v30z"
          fill="#1d4ed8" opacity="1" style="">

    </path>
  </g>
</svg>
